#!OML:ASF F:\VICON\USERDATA\INSTALL\rory3\rory3.ASF
:FULLY-SPECIFIED
:DEGREES
322
root 3.84724 17.3568 -18.5225 0.952702 -4.23032 -0.758295
lowerback 31.4414 2.2387 3.99097
upperback 6.19822 4.92872 7.11933
thorax -9.81299 2.20341 3.61525
lowerneck -13.805 -4.85104 -6.05856
upperneck 13.7911 -5.15028 -1.03868
head 6.61232 -2.88663 0.143643
rclavicle -3.18055e-014 -4.13472e-014
rhumerus -8.60805 -22.1073 -57.6652
rradius 52.873
rwrist 36.0249
rhand -13.9003 5.34104
rfingers 7.12502
rthumb 12.2252 -24.2817
lclavicle -3.18055e-014 -4.13472e-014
lhumerus -49.853 10.5445 75.6534
lradius 55.27
lwrist 11.5555
lhand -12.7948 47.9323
lfingers 7.12502
lthumb 13.291 77.4885
rfemur -7.71392 4.97707 23.478
rtibia 37.8616
rfoot -24.6881 -14.9415
rtoes -3.38563
lfemur -34.074 -9.35634 -6.30232
ltibia 23.31
lfoot 3.16234 4.89098
ltoes -25.0239
323
root 3.82005 17.3697 -18.7243 0.871495 -3.92048 -0.637751
lowerback 31.5652 2.03457 4.19522
upperback 6.52677 4.70851 7.10498
thorax -9.46743 2.10004 3.57468
lowerneck -15.176 -4.99266 -6.18713
upperneck 14.1209 -5.2117 -1.00089
head 6.95892 -2.92525 0.130767
rclavicle -2.70347e-014 -4.29375e-014
rhumerus -7.38466 -21.8441 -57.4565
rradius 53.7723
rwrist 36.1682
rhand -13.6956 5.9696
rfingers 7.12502
rthumb 12.4226 -23.6412
lclavicle -2.70347e-014 -4.29375e-014
lhumerus -49.3582 11.1099 75.739
lradius 54.8662
lwrist 11.0589
lhand -12.0817 47.5752
lfingers 7.12502
lthumb 13.9783 77.0853
rfemur -8.89627 4.61889 23.4041
rtibia 38.6937
rfoot -24.3284 -14.7375
rtoes -2.90655
lfemur -33.872 -9.02763 -6.77293
ltibia 24.4936
lfoot 1.989 4.19817
ltoes -27.4993
324
root 3.79483 17.3766 -18.9275 0.713073 -3.41938 -0.190915
lowerback 31.8195 1.8756 4.13159
upperback 6.25325 4.52004 6.95612
thorax -9.85548 2.00759 3.50889
lowerneck -13.9303 -5.02492 -5.98718
upperneck 13.7363 -5.37662 -1.13684
head 6.61649 -2.99922 0.0755477
rclavicle -7.79236e-014 -7.15625e-014
rhumerus -7.68768 -21.1263 -56.6592
rradius 54.9884
rwrist 36.1501
rhand -12.1976 3.48066
rfingers 7.12502
rthumb 13.8665 -26.0371
lclavicle -7.79236e-014 -7.15625e-014
lhumerus -50.1298 10.9404 75.657
lradius 54.8328
lwrist 10.9243
lhand -11.9091 47.1309
lfingers 7.12502
lthumb 14.1446 76.6294
rfemur -9.99898 3.99607 22.9657
rtibia 39.5352
rfoot -24.0854 -14.4307
rtoes -1.73058
lfemur -33.6461 -8.81313 -7.67997
ltibia 25.8731
lfoot 1.12444 3.70962
ltoes -25.7162
325
root 3.76146 17.3857 -19.133 0.645242 -3.03553 0.466401
lowerback 32.136 1.80811 3.59993
upperback 6.33439 4.27173 6.89223
thorax -9.92113 1.90373 3.81006
lowerneck -14.7316 -5.07517 -6.00622
upperneck 13.9447 -5.35915 -1.24854
head 6.81749 -3.00525 0.0206165
rclavicle -5.40694e-014 -1.06549e-013
rhumerus -7.16282 -20.1515 -56.0224
rradius 56.2646
rwrist 35.8111
rhand -13.3908 7.93276
rfingers 7.12502
rthumb 12.7165 -21.66
lclavicle -5.40694e-014 -1.06549e-013
lhumerus -50.1362 11.4184 75.759
lradius 54.7845
lwrist 10.7941
lhand -11.5865 47.109
lfingers 7.12502
lthumb 14.4554 76.5855
rfemur -11.2945 3.5531 22.336
rtibia 40.6241
rfoot -24.0583 -14.0954
rtoes -0.101184
lfemur -33.4934 -8.34191 -8.86563
ltibia 27.4441
lfoot 0.873971 3.09141
ltoes -24.4571
326
root 3.76123 17.4314 -19.2467 0.139936 -4.58975 1.11015
lowerback 32.0918 2.30416 2.90435
upperback 6.38149 4.62866 6.65684
thorax -9.90424 2.08255 3.79764
lowerneck -13.6538 -5.02578 -6.3032
upperneck 13.7759 -5.33547 -1.12144
head 6.59207 -2.99524 0.140706
rclavicle 0 -3.02153e-014
rhumerus -7.79927 -18.3933 -54.8856
rradius 57.6542
rwrist 35.3364
rhand -11.9508 7.42454
rfingers 7.12502
rthumb 14.1044 -22.0768
lclavicle 0 -3.02153e-014
lhumerus -51.2582 11.7513 75.5657
lradius 54.7041
lwrist 10.5664
lhand -11.3734 47.5297
lfingers 7.12502
lthumb 14.6608 76.9914
rfemur -11.8237 4.52863 21.522
rtibia 41.5212
rfoot -24.0494 -13.2677
rtoes 1.17602
lfemur -31.9371 -7.57877 -9.9261
ltibia 29.1471
lfoot -0.837523 3.49398
ltoes -24.663
327
root 3.71076 17.4165 -19.4977 0.425113 -3.16163 1.57832
lowerback 32.4971 1.90367 2.95562
upperback 6.25621 4.15858 6.46475
thorax -10.1553 1.86122 3.73115
lowerneck -14.8398 -5.19565 -5.98667
upperneck 14.0051 -5.5476 -1.0721
head 6.86362 -3.08 0.0505376
rclavicle -5.40694e-014 -1.43125e-014
rhumerus -7.51024 -18.3389 -54.3451
rradius 58.8361
rwrist 35.3435
rhand -8.05243 3.21036
rfingers 7.12502
rthumb 17.8584 -25.9897
lclavicle -5.40694e-014 -1.43125e-014
lhumerus -50.6415 11.7525 75.5976
lradius 54.4215
lwrist 10.4061
lhand -11.6724 47.7667
lfingers 7.12502
lthumb 14.3727 77.2491
rfemur -13.4472 3.55045 21.2347
rtibia 42.4235
rfoot -23.7488 -13.4128
rtoes 2.57946
lfemur -32.6237 -7.28844 -10.8948
ltibia 30.9518
lfoot -1.1297 1.80091
ltoes -24.8089
328
root 3.69855 17.4278 -19.6715 0.583268 -3.29725 2.16983
lowerback 32.2007 1.9643 2.38213
upperback 5.9254 4.05094 6.39568
thorax -10.4371 1.8295 4.00843
lowerneck -13.291 -5.05709 -6.09429
upperneck 13.4739 -5.45715 -1.09827
head 6.42986 -3.03607 0.116982
rclavicle 1.27222e-014 3.81667e-014
rhumerus -7.92197 -16.8477 -53.4135
rradius 60.2479
rwrist 35.5134
rhand -8.85554 5.61666
rfingers 7.12502
rthumb 17.0855 -23.6521
lclavicle 1.27222e-014 3.81667e-014
lhumerus -51.8426 12.0844 75.4623
lradius 54.5261
lwrist 10.3206
lhand -11.8617 47.9393
lfingers 7.12502
lthumb 14.1903 77.4347
rfemur -14.7491 3.52527 20.5507
rtibia 43.0462
rfoot -23.4074 -13.0134
rtoes 3.71704
lfemur -32.4671 -6.9857 -11.8761
ltibia 32.8698
lfoot -2.24752 1.37107
ltoes -25.6349
329
root 3.68392 17.4378 -19.8342 0.505294 -3.51427 2.57411
lowerback 31.7748 1.90619 2.06048
upperback 5.98958 3.84128 6.371
thorax -10.2001 1.74593 4.24381
lowerneck -12.4554 -4.90674 -6.46674
upperneck 13.1127 -5.25109 -1.10368
head 6.17946 -2.94935 0.22015
rclavicle -6.04305e-014 -6.20208e-014
rhumerus -7.59686 -15.4644 -52.73
rradius 61.5854
rwrist 35.9682
rhand -5.80875 4.29185
rfingers 7.12502
rthumb 20.0162 -24.6972
lclavicle -6.04305e-014 -6.20208e-014
lhumerus -52.5434 12.8334 75.3401
lradius 54.3938
lwrist 10.2027
lhand -12.0163 47.7582
lfingers 7.12502
lthumb 14.0413 77.2639
rfemur -15.6293 3.70366 20.1138
rtibia 43.6155
rfoot -23.171 -12.8482
rtoes 4.28782
lfemur -31.9395 -6.70095 -12.6668
ltibia 34.8031
lfoot -3.3815 0.840042
ltoes -25.1317
330
root 3.66464 17.4428 -20.0025 0.486577 -3.49592 2.96549
lowerback 31.6444 1.93991 2.16207
upperback 6.48159 3.84322 6.1503
thorax -9.57073 1.74393 3.95913
lowerneck -14.7844 -5.09962 -6.02759
upperneck 13.8298 -5.34996 -1.46702
head 6.78419 -3.01957 -0.0450116
rclavicle -2.54444e-014 -3.18055e-014
rhumerus -6.72394 -15.5506 -52.2288
rradius 62.7674
rwrist 36.7997
rhand -3.29965 2.30629
rfingers 7.12502
rthumb 22.4264 -26.4118
lclavicle -2.54444e-014 -3.18055e-014
lhumerus -51.424 13.0446 75.5411
lradius 53.8711
lwrist 10.3387
lhand -12.4086 47.8637
lfingers 7.12502
lthumb 13.6632 77.3953
rfemur -16.4284 3.86605 19.7224
rtibia 43.9734
rfoot -22.801 -12.9223
rtoes 4.17661
lfemur -31.5297 -6.35492 -13.4759
ltibia 36.8044
lfoot -4.41095 0.0623822
ltoes -24.9118
331
root 3.64291 17.4438 -20.1766 0.563666 -3.17023 3.23021
lowerback 31.5298 1.73539 2.07226
upperback 5.91501 3.59253 6.10637
thorax -10.1393 1.63267 4.05169
lowerneck -13.1527 -4.80902 -5.62332
upperneck 13.6174 -5.0733 -2.04489
head 6.40657 -2.90747 -0.219456
rclavicle -4.77083e-015 -2.54444e-014
rhumerus -7.61862 -14.1185 -51.2975
rradius 64.2728
rwrist 38.1702
rhand -1.16891 0.560813
rfingers 7.12502
rthumb 24.4703 -27.8961
lclavicle -4.77083e-015 -2.54444e-014
lhumerus -52.9257 13.0347 75.1942
lradius 53.8871
lwrist 10.47
lhand -12.5395 48.1815
lfingers 7.12502
lthumb 13.5371 77.7214
rfemur -17.2656 4.02329 19.497
rtibia 44.2884
rfoot -22.412 -13.143
rtoes 4.29248
lfemur -31.2955 -6.0755 -14.1382
ltibia 38.9005
lfoot -5.30267 -0.903209
ltoes -25.2712
332
root 3.62868 17.4458 -20.3363 0.450109 -3.19009 3.29176
lowerback 31.4795 1.68998 2.2951
upperback 6.14623 3.58007 6.06508
thorax -9.84137 1.62101 3.89459
lowerneck -13.8327 -4.94361 -5.3771
upperneck 13.5699 -5.21473 -2.32168
head 6.49435 -2.98754 -0.377308
rclavicle 4.77083e-015 -3.18055e-014
rhumerus -7.38623 -14.0115 -50.6847
rradius 65.8016
rwrist 39.5858
rhand 0.376962 -0.665601
rfingers 7.12502
rthumb 25.9514 -28.914
lclavicle 4.77083e-015 -3.18055e-014
lhumerus -52.5946 13.249 75.3676
lradius 53.741
lwrist 10.5793
lhand -12.8381 48.8823
lfingers 7.12502
lthumb 13.2493 78.4413
rfemur -17.8649 4.48872 19.4532
rtibia 44.606
rfoot -22.251 -12.9742
rtoes 6.15275
lfemur -30.7081 -5.58386 -14.6157
ltibia 40.9855
lfoot -6.31229 -1.54212
ltoes -25.4436
